<?xml version="1.0" encoding="utf-8"?>
<!-- Generator: Adobe Illustrator 21.1.0, SVG Export Plug-In . SVG Version: 6.00 Build 0)  -->
<svg version="1.1" id="Layer_1" xmlns="http://www.w3.org/2000/svg" xmlns:xlink="http://www.w3.org/1999/xlink" x="0px" y="0px"
	 viewBox="0 0 43 1080" style="enable-background:new 0 0 43 1080;" xml:space="preserve">
<style type="text/css">
	.st0{fill:#F4F8F9;}
</style>
<g>
	<circle class="st0" cx="5" cy="0.7" r="2"/>
	<circle class="st0" cx="16" cy="0.7" r="2"/>
	<circle class="st0" cx="27" cy="0.7" r="2"/>
	<circle class="st0" cx="38" cy="0.7" r="2"/>
	<circle class="st0" cx="5" cy="11.7" r="2"/>
	<circle class="st0" cx="16" cy="11.7" r="2"/>
	<circle class="st0" cx="27" cy="11.7" r="2"/>
	<circle class="st0" cx="38" cy="11.7" r="2"/>
	<circle class="st0" cx="5" cy="22.7" r="2"/>
	<circle class="st0" cx="16" cy="22.7" r="2"/>
	<circle class="st0" cx="27" cy="22.7" r="2"/>
	<circle class="st0" cx="38" cy="22.7" r="2"/>
	<circle class="st0" cx="5" cy="33.7" r="2"/>
	<circle class="st0" cx="16" cy="33.7" r="2"/>
	<circle class="st0" cx="27" cy="33.7" r="2"/>
	<circle class="st0" cx="38" cy="33.7" r="2"/>
	<circle class="st0" cx="5" cy="44.7" r="2"/>
	<circle class="st0" cx="16" cy="44.7" r="2"/>
	<circle class="st0" cx="27" cy="44.7" r="2"/>
	<circle class="st0" cx="38" cy="44.7" r="2"/>
	<circle class="st0" cx="5" cy="55.7" r="2"/>
	<circle class="st0" cx="16" cy="55.7" r="2"/>
	<circle class="st0" cx="27" cy="55.7" r="2"/>
	<circle class="st0" cx="38" cy="55.7" r="2"/>
	<circle class="st0" cx="5" cy="66.7" r="2"/>
	<circle class="st0" cx="16" cy="66.7" r="2"/>
	<circle class="st0" cx="27" cy="66.7" r="2"/>
	<circle class="st0" cx="38" cy="66.7" r="2"/>
	<circle class="st0" cx="5" cy="77.7" r="2"/>
	<circle class="st0" cx="16" cy="77.7" r="2"/>
	<circle class="st0" cx="27" cy="77.7" r="2"/>
	<circle class="st0" cx="38" cy="77.7" r="2"/>
	<circle class="st0" cx="5" cy="88.7" r="2"/>
	<circle class="st0" cx="16" cy="88.7" r="2"/>
	<circle class="st0" cx="27" cy="88.7" r="2"/>
	<circle class="st0" cx="38" cy="88.7" r="2"/>
	<circle class="st0" cx="5" cy="99.7" r="2"/>
	<circle class="st0" cx="16" cy="99.7" r="2"/>
	<circle class="st0" cx="27" cy="99.7" r="2"/>
	<circle class="st0" cx="38" cy="99.7" r="2"/>
	<circle class="st0" cx="5" cy="110.8" r="2"/>
	<circle class="st0" cx="16" cy="110.8" r="2"/>
	<circle class="st0" cx="27" cy="110.8" r="2"/>
	<circle class="st0" cx="38" cy="110.8" r="2"/>
	<circle class="st0" cx="5" cy="121.8" r="2"/>
	<circle class="st0" cx="16" cy="121.8" r="2"/>
	<circle class="st0" cx="27" cy="121.8" r="2"/>
	<circle class="st0" cx="38" cy="121.8" r="2"/>
	<circle class="st0" cx="5" cy="132.8" r="2"/>
	<circle class="st0" cx="16" cy="132.8" r="2"/>
	<circle class="st0" cx="27" cy="132.8" r="2"/>
	<circle class="st0" cx="38" cy="132.8" r="2"/>
	<circle class="st0" cx="5" cy="143.8" r="2"/>
	<circle class="st0" cx="16" cy="143.8" r="2"/>
	<circle class="st0" cx="27" cy="143.8" r="2"/>
	<circle class="st0" cx="38" cy="143.8" r="2"/>
	<circle class="st0" cx="5" cy="154.8" r="2"/>
	<circle class="st0" cx="16" cy="154.8" r="2"/>
	<circle class="st0" cx="27" cy="154.8" r="2"/>
	<circle class="st0" cx="38" cy="154.8" r="2"/>
	<circle class="st0" cx="5" cy="165.8" r="2"/>
	<circle class="st0" cx="16" cy="165.8" r="2"/>
	<circle class="st0" cx="27" cy="165.8" r="2"/>
	<circle class="st0" cx="38" cy="165.8" r="2"/>
	<circle class="st0" cx="5" cy="176.8" r="2"/>
	<circle class="st0" cx="16" cy="176.8" r="2"/>
	<circle class="st0" cx="27" cy="176.8" r="2"/>
	<circle class="st0" cx="38" cy="176.8" r="2"/>
	<circle class="st0" cx="5" cy="187.8" r="2"/>
	<circle class="st0" cx="16" cy="187.8" r="2"/>
	<circle class="st0" cx="27" cy="187.8" r="2"/>
	<circle class="st0" cx="38" cy="187.8" r="2"/>
	<circle class="st0" cx="5" cy="198.8" r="2"/>
	<circle class="st0" cx="16" cy="198.8" r="2"/>
	<circle class="st0" cx="27" cy="198.8" r="2"/>
	<circle class="st0" cx="38" cy="198.8" r="2"/>
	<circle class="st0" cx="5" cy="209.8" r="2"/>
	<circle class="st0" cx="16" cy="209.8" r="2"/>
	<circle class="st0" cx="27" cy="209.8" r="2"/>
	<circle class="st0" cx="38" cy="209.8" r="2"/>
	<circle class="st0" cx="5" cy="220.8" r="2"/>
	<circle class="st0" cx="16" cy="220.8" r="2"/>
	<circle class="st0" cx="27" cy="220.8" r="2"/>
	<circle class="st0" cx="38" cy="220.8" r="2"/>
	<circle class="st0" cx="5" cy="231.8" r="2"/>
	<circle class="st0" cx="16" cy="231.8" r="2"/>
	<circle class="st0" cx="27" cy="231.8" r="2"/>
	<circle class="st0" cx="38" cy="231.8" r="2"/>
	<circle class="st0" cx="5" cy="242.8" r="2"/>
	<circle class="st0" cx="16" cy="242.8" r="2"/>
	<circle class="st0" cx="27" cy="242.8" r="2"/>
	<circle class="st0" cx="38" cy="242.8" r="2"/>
	<circle class="st0" cx="5" cy="253.8" r="2"/>
	<circle class="st0" cx="16" cy="253.8" r="2"/>
	<circle class="st0" cx="27" cy="253.8" r="2"/>
	<circle class="st0" cx="38" cy="253.8" r="2"/>
	<circle class="st0" cx="5" cy="264.8" r="2"/>
	<circle class="st0" cx="16" cy="264.8" r="2"/>
	<circle class="st0" cx="27" cy="264.8" r="2"/>
	<circle class="st0" cx="38" cy="264.8" r="2"/>
	<circle class="st0" cx="5" cy="275.8" r="2"/>
	<circle class="st0" cx="16" cy="275.8" r="2"/>
	<circle class="st0" cx="27" cy="275.8" r="2"/>
	<circle class="st0" cx="38" cy="275.8" r="2"/>
	<circle class="st0" cx="5" cy="286.9" r="2"/>
	<circle class="st0" cx="16" cy="286.9" r="2"/>
	<circle class="st0" cx="27" cy="286.9" r="2"/>
	<circle class="st0" cx="38" cy="286.9" r="2"/>
	<circle class="st0" cx="5" cy="297.9" r="2"/>
	<circle class="st0" cx="16" cy="297.9" r="2"/>
	<circle class="st0" cx="27" cy="297.9" r="2"/>
	<circle class="st0" cx="38" cy="297.9" r="2"/>
	<circle class="st0" cx="5" cy="308.9" r="2"/>
	<circle class="st0" cx="16" cy="308.9" r="2"/>
	<circle class="st0" cx="27" cy="308.9" r="2"/>
	<circle class="st0" cx="38" cy="308.9" r="2"/>
	<circle class="st0" cx="5" cy="319.9" r="2"/>
	<circle class="st0" cx="16" cy="319.9" r="2"/>
	<circle class="st0" cx="27" cy="319.9" r="2"/>
	<circle class="st0" cx="38" cy="319.9" r="2"/>
	<circle class="st0" cx="5" cy="330.9" r="2"/>
	<circle class="st0" cx="16" cy="330.9" r="2"/>
	<circle class="st0" cx="27" cy="330.9" r="2"/>
	<circle class="st0" cx="38" cy="330.9" r="2"/>
	<circle class="st0" cx="5" cy="341.9" r="2"/>
	<circle class="st0" cx="16" cy="341.9" r="2"/>
	<circle class="st0" cx="27" cy="341.9" r="2"/>
	<circle class="st0" cx="38" cy="341.9" r="2"/>
	<circle class="st0" cx="5" cy="352.9" r="2"/>
	<circle class="st0" cx="16" cy="352.9" r="2"/>
	<circle class="st0" cx="27" cy="352.9" r="2"/>
	<circle class="st0" cx="38" cy="352.9" r="2"/>
	<circle class="st0" cx="5" cy="363.9" r="2"/>
	<circle class="st0" cx="16" cy="363.9" r="2"/>
	<circle class="st0" cx="27" cy="363.9" r="2"/>
	<circle class="st0" cx="38" cy="363.9" r="2"/>
	<circle class="st0" cx="5" cy="374.9" r="2"/>
	<circle class="st0" cx="16" cy="374.9" r="2"/>
	<circle class="st0" cx="27" cy="374.9" r="2"/>
	<circle class="st0" cx="38" cy="374.9" r="2"/>
	<circle class="st0" cx="5" cy="385.9" r="2"/>
	<circle class="st0" cx="16" cy="385.9" r="2"/>
	<circle class="st0" cx="27" cy="385.9" r="2"/>
	<circle class="st0" cx="38" cy="385.9" r="2"/>
	<circle class="st0" cx="5" cy="396.9" r="2"/>
	<circle class="st0" cx="16" cy="396.9" r="2"/>
	<circle class="st0" cx="27" cy="396.9" r="2"/>
	<circle class="st0" cx="38" cy="396.9" r="2"/>
	<circle class="st0" cx="5" cy="407.9" r="2"/>
	<circle class="st0" cx="16" cy="407.9" r="2"/>
	<circle class="st0" cx="27" cy="407.9" r="2"/>
	<circle class="st0" cx="38" cy="407.9" r="2"/>
	<circle class="st0" cx="5" cy="418.9" r="2"/>
	<circle class="st0" cx="16" cy="418.9" r="2"/>
	<circle class="st0" cx="27" cy="418.9" r="2"/>
	<circle class="st0" cx="38" cy="418.9" r="2"/>
	<circle class="st0" cx="5" cy="429.9" r="2"/>
	<circle class="st0" cx="16" cy="429.9" r="2"/>
	<circle class="st0" cx="27" cy="429.9" r="2"/>
	<circle class="st0" cx="38" cy="429.9" r="2"/>
	<circle class="st0" cx="5" cy="440.9" r="2"/>
	<circle class="st0" cx="16" cy="440.9" r="2"/>
	<circle class="st0" cx="27" cy="440.9" r="2"/>
	<circle class="st0" cx="38" cy="440.9" r="2"/>
	<circle class="st0" cx="5" cy="451.9" r="2"/>
	<circle class="st0" cx="16" cy="451.9" r="2"/>
	<circle class="st0" cx="27" cy="451.9" r="2"/>
	<circle class="st0" cx="38" cy="451.9" r="2"/>
	<circle class="st0" cx="5" cy="463" r="2"/>
	<circle class="st0" cx="16" cy="463" r="2"/>
	<circle class="st0" cx="27" cy="463" r="2"/>
	<circle class="st0" cx="38" cy="463" r="2"/>
	<circle class="st0" cx="5" cy="474" r="2"/>
	<circle class="st0" cx="16" cy="474" r="2"/>
	<circle class="st0" cx="27" cy="474" r="2"/>
	<circle class="st0" cx="38" cy="474" r="2"/>
	<circle class="st0" cx="5" cy="485" r="2"/>
	<circle class="st0" cx="16" cy="485" r="2"/>
	<circle class="st0" cx="27" cy="485" r="2"/>
	<circle class="st0" cx="38" cy="485" r="2"/>
	<circle class="st0" cx="5" cy="496" r="2"/>
	<circle class="st0" cx="16" cy="496" r="2"/>
	<circle class="st0" cx="27" cy="496" r="2"/>
	<circle class="st0" cx="38" cy="496" r="2"/>
	<circle class="st0" cx="5" cy="507" r="2"/>
	<circle class="st0" cx="16" cy="507" r="2"/>
	<circle class="st0" cx="27" cy="507" r="2"/>
	<circle class="st0" cx="38" cy="507" r="2"/>
	<circle class="st0" cx="5" cy="518" r="2"/>
	<circle class="st0" cx="16" cy="518" r="2"/>
	<circle class="st0" cx="27" cy="518" r="2"/>
	<circle class="st0" cx="38" cy="518" r="2"/>
	<circle class="st0" cx="5" cy="529" r="2"/>
	<circle class="st0" cx="16" cy="529" r="2"/>
	<circle class="st0" cx="27" cy="529" r="2"/>
	<circle class="st0" cx="38" cy="529" r="2"/>
	<circle class="st0" cx="5" cy="540" r="2"/>
	<circle class="st0" cx="16" cy="540" r="2"/>
	<circle class="st0" cx="27" cy="540" r="2"/>
	<circle class="st0" cx="38" cy="540" r="2"/>
	<circle class="st0" cx="5" cy="551" r="2"/>
	<circle class="st0" cx="16" cy="551" r="2"/>
	<circle class="st0" cx="27" cy="551" r="2"/>
	<circle class="st0" cx="38" cy="551" r="2"/>
	<circle class="st0" cx="5" cy="562" r="2"/>
	<circle class="st0" cx="16" cy="562" r="2"/>
	<circle class="st0" cx="27" cy="562" r="2"/>
	<circle class="st0" cx="38" cy="562" r="2"/>
	<circle class="st0" cx="5" cy="573" r="2"/>
	<circle class="st0" cx="16" cy="573" r="2"/>
	<circle class="st0" cx="27" cy="573" r="2"/>
	<circle class="st0" cx="38" cy="573" r="2"/>
	<circle class="st0" cx="5" cy="584" r="2"/>
	<circle class="st0" cx="16" cy="584" r="2"/>
	<circle class="st0" cx="27" cy="584" r="2"/>
	<circle class="st0" cx="38" cy="584" r="2"/>
	<circle class="st0" cx="5" cy="595" r="2"/>
	<circle class="st0" cx="16" cy="595" r="2"/>
	<circle class="st0" cx="27" cy="595" r="2"/>
	<circle class="st0" cx="38" cy="595" r="2"/>
	<circle class="st0" cx="5" cy="606" r="2"/>
	<circle class="st0" cx="16" cy="606" r="2"/>
	<circle class="st0" cx="27" cy="606" r="2"/>
	<circle class="st0" cx="38" cy="606" r="2"/>
	<circle class="st0" cx="5" cy="617" r="2"/>
	<circle class="st0" cx="16" cy="617" r="2"/>
	<circle class="st0" cx="27" cy="617" r="2"/>
	<circle class="st0" cx="38" cy="617" r="2"/>
	<circle class="st0" cx="5" cy="628.1" r="2"/>
	<circle class="st0" cx="16" cy="628.1" r="2"/>
	<circle class="st0" cx="27" cy="628.1" r="2"/>
	<circle class="st0" cx="38" cy="628.1" r="2"/>
	<circle class="st0" cx="5" cy="639.1" r="2"/>
	<circle class="st0" cx="16" cy="639.1" r="2"/>
	<circle class="st0" cx="27" cy="639.1" r="2"/>
	<circle class="st0" cx="38" cy="639.1" r="2"/>
	<circle class="st0" cx="5" cy="650.1" r="2"/>
	<circle class="st0" cx="16" cy="650.1" r="2"/>
	<circle class="st0" cx="27" cy="650.1" r="2"/>
	<circle class="st0" cx="38" cy="650.1" r="2"/>
	<circle class="st0" cx="5" cy="661.1" r="2"/>
	<circle class="st0" cx="16" cy="661.1" r="2"/>
	<circle class="st0" cx="27" cy="661.1" r="2"/>
	<circle class="st0" cx="38" cy="661.1" r="2"/>
	<circle class="st0" cx="5" cy="672.1" r="2"/>
	<circle class="st0" cx="16" cy="672.1" r="2"/>
	<circle class="st0" cx="27" cy="672.1" r="2"/>
	<circle class="st0" cx="38" cy="672.1" r="2"/>
	<circle class="st0" cx="5" cy="683.1" r="2"/>
	<circle class="st0" cx="16" cy="683.1" r="2"/>
	<circle class="st0" cx="27" cy="683.1" r="2"/>
	<circle class="st0" cx="38" cy="683.1" r="2"/>
	<circle class="st0" cx="5" cy="694.1" r="2"/>
	<circle class="st0" cx="16" cy="694.1" r="2"/>
	<circle class="st0" cx="27" cy="694.1" r="2"/>
	<circle class="st0" cx="38" cy="694.1" r="2"/>
	<circle class="st0" cx="5" cy="705.1" r="2"/>
	<circle class="st0" cx="16" cy="705.1" r="2"/>
	<circle class="st0" cx="27" cy="705.1" r="2"/>
	<circle class="st0" cx="38" cy="705.1" r="2"/>
	<circle class="st0" cx="5" cy="716.1" r="2"/>
	<circle class="st0" cx="16" cy="716.1" r="2"/>
	<circle class="st0" cx="27" cy="716.1" r="2"/>
	<circle class="st0" cx="38" cy="716.1" r="2"/>
	<circle class="st0" cx="5" cy="727.1" r="2"/>
	<circle class="st0" cx="16" cy="727.1" r="2"/>
	<circle class="st0" cx="27" cy="727.1" r="2"/>
	<circle class="st0" cx="38" cy="727.1" r="2"/>
	<circle class="st0" cx="5" cy="738.1" r="2"/>
	<circle class="st0" cx="16" cy="738.1" r="2"/>
	<circle class="st0" cx="27" cy="738.1" r="2"/>
	<circle class="st0" cx="38" cy="738.1" r="2"/>
	<circle class="st0" cx="5" cy="749.1" r="2"/>
	<circle class="st0" cx="16" cy="749.1" r="2"/>
	<circle class="st0" cx="27" cy="749.1" r="2"/>
	<circle class="st0" cx="38" cy="749.1" r="2"/>
	<circle class="st0" cx="5" cy="760.1" r="2"/>
	<circle class="st0" cx="16" cy="760.1" r="2"/>
	<circle class="st0" cx="27" cy="760.1" r="2"/>
	<circle class="st0" cx="38" cy="760.1" r="2"/>
	<circle class="st0" cx="5" cy="771.1" r="2"/>
	<circle class="st0" cx="16" cy="771.1" r="2"/>
	<circle class="st0" cx="27" cy="771.1" r="2"/>
	<circle class="st0" cx="38" cy="771.1" r="2"/>
	<circle class="st0" cx="5" cy="782.1" r="2"/>
	<circle class="st0" cx="16" cy="782.1" r="2"/>
	<circle class="st0" cx="27" cy="782.1" r="2"/>
	<circle class="st0" cx="38" cy="782.1" r="2"/>
	<circle class="st0" cx="5" cy="793.1" r="2"/>
	<circle class="st0" cx="16" cy="793.1" r="2"/>
	<circle class="st0" cx="27" cy="793.1" r="2"/>
	<circle class="st0" cx="38" cy="793.1" r="2"/>
	<circle class="st0" cx="5" cy="804.2" r="2"/>
	<circle class="st0" cx="16" cy="804.2" r="2"/>
	<circle class="st0" cx="27" cy="804.2" r="2"/>
	<circle class="st0" cx="38" cy="804.2" r="2"/>
	<circle class="st0" cx="5" cy="815.2" r="2"/>
	<circle class="st0" cx="16" cy="815.2" r="2"/>
	<circle class="st0" cx="27" cy="815.2" r="2"/>
	<circle class="st0" cx="38" cy="815.2" r="2"/>
	<circle class="st0" cx="5" cy="826.2" r="2"/>
	<circle class="st0" cx="16" cy="826.2" r="2"/>
	<circle class="st0" cx="27" cy="826.2" r="2"/>
	<circle class="st0" cx="38" cy="826.2" r="2"/>
	<circle class="st0" cx="5" cy="837.2" r="2"/>
	<circle class="st0" cx="16" cy="837.2" r="2"/>
	<circle class="st0" cx="27" cy="837.2" r="2"/>
	<circle class="st0" cx="38" cy="837.2" r="2"/>
	<circle class="st0" cx="5" cy="848.2" r="2"/>
	<circle class="st0" cx="16" cy="848.2" r="2"/>
	<circle class="st0" cx="27" cy="848.2" r="2"/>
	<circle class="st0" cx="38" cy="848.2" r="2"/>
	<circle class="st0" cx="5" cy="859.2" r="2"/>
	<circle class="st0" cx="16" cy="859.2" r="2"/>
	<circle class="st0" cx="27" cy="859.2" r="2"/>
	<circle class="st0" cx="38" cy="859.2" r="2"/>
	<circle class="st0" cx="5" cy="870.2" r="2"/>
	<circle class="st0" cx="16" cy="870.2" r="2"/>
	<circle class="st0" cx="27" cy="870.2" r="2"/>
	<circle class="st0" cx="38" cy="870.2" r="2"/>
	<circle class="st0" cx="5" cy="881.2" r="2"/>
	<circle class="st0" cx="16" cy="881.2" r="2"/>
	<circle class="st0" cx="27" cy="881.2" r="2"/>
	<circle class="st0" cx="38" cy="881.2" r="2"/>
	<circle class="st0" cx="5" cy="892.2" r="2"/>
	<circle class="st0" cx="16" cy="892.2" r="2"/>
	<circle class="st0" cx="27" cy="892.2" r="2"/>
	<circle class="st0" cx="38" cy="892.2" r="2"/>
	<circle class="st0" cx="5" cy="903.2" r="2"/>
	<circle class="st0" cx="16" cy="903.2" r="2"/>
	<circle class="st0" cx="27" cy="903.2" r="2"/>
	<circle class="st0" cx="38" cy="903.2" r="2"/>
	<circle class="st0" cx="5" cy="914.2" r="2"/>
	<circle class="st0" cx="16" cy="914.2" r="2"/>
	<circle class="st0" cx="27" cy="914.2" r="2"/>
	<circle class="st0" cx="38" cy="914.2" r="2"/>
	<circle class="st0" cx="5" cy="925.2" r="2"/>
	<circle class="st0" cx="16" cy="925.2" r="2"/>
	<circle class="st0" cx="27" cy="925.2" r="2"/>
	<circle class="st0" cx="38" cy="925.2" r="2"/>
	<circle class="st0" cx="5" cy="936.2" r="2"/>
	<circle class="st0" cx="16" cy="936.2" r="2"/>
	<circle class="st0" cx="27" cy="936.2" r="2"/>
	<circle class="st0" cx="38" cy="936.2" r="2"/>
	<circle class="st0" cx="5" cy="947.2" r="2"/>
	<circle class="st0" cx="16" cy="947.2" r="2"/>
	<circle class="st0" cx="27" cy="947.2" r="2"/>
	<circle class="st0" cx="38" cy="947.2" r="2"/>
	<circle class="st0" cx="5" cy="958.2" r="2"/>
	<circle class="st0" cx="16" cy="958.2" r="2"/>
	<circle class="st0" cx="27" cy="958.2" r="2"/>
	<circle class="st0" cx="38" cy="958.2" r="2"/>
	<circle class="st0" cx="5" cy="969.2" r="2"/>
	<circle class="st0" cx="16" cy="969.2" r="2"/>
	<circle class="st0" cx="27" cy="969.2" r="2"/>
	<circle class="st0" cx="38" cy="969.2" r="2"/>
	<circle class="st0" cx="5" cy="980.3" r="2"/>
	<circle class="st0" cx="16" cy="980.3" r="2"/>
	<circle class="st0" cx="27" cy="980.3" r="2"/>
	<circle class="st0" cx="38" cy="980.3" r="2"/>
	<circle class="st0" cx="5" cy="991.3" r="2"/>
	<circle class="st0" cx="16" cy="991.3" r="2"/>
	<circle class="st0" cx="27" cy="991.3" r="2"/>
	<circle class="st0" cx="38" cy="991.3" r="2"/>
	<circle class="st0" cx="5" cy="1002.3" r="2"/>
	<circle class="st0" cx="16" cy="1002.3" r="2"/>
	<circle class="st0" cx="27" cy="1002.3" r="2"/>
	<circle class="st0" cx="38" cy="1002.3" r="2"/>
	<circle class="st0" cx="5" cy="1013.3" r="2"/>
	<circle class="st0" cx="16" cy="1013.3" r="2"/>
	<circle class="st0" cx="27" cy="1013.3" r="2"/>
	<circle class="st0" cx="38" cy="1013.3" r="2"/>
	<circle class="st0" cx="5" cy="1024.3" r="2"/>
	<circle class="st0" cx="16" cy="1024.3" r="2"/>
	<circle class="st0" cx="27" cy="1024.3" r="2"/>
	<circle class="st0" cx="38" cy="1024.3" r="2"/>
	<circle class="st0" cx="5" cy="1035.3" r="2"/>
	<circle class="st0" cx="16" cy="1035.3" r="2"/>
	<circle class="st0" cx="27" cy="1035.3" r="2"/>
	<circle class="st0" cx="38" cy="1035.3" r="2"/>
	<circle class="st0" cx="5" cy="1046.3" r="2"/>
	<circle class="st0" cx="16" cy="1046.3" r="2"/>
	<circle class="st0" cx="27" cy="1046.3" r="2"/>
	<circle class="st0" cx="38" cy="1046.3" r="2"/>
	<circle class="st0" cx="5" cy="1057.3" r="2"/>
	<circle class="st0" cx="16" cy="1057.3" r="2"/>
	<circle class="st0" cx="27" cy="1057.3" r="2"/>
	<circle class="st0" cx="38" cy="1057.3" r="2"/>
	<circle class="st0" cx="5" cy="1068.3" r="2"/>
	<circle class="st0" cx="16" cy="1068.3" r="2"/>
	<circle class="st0" cx="27" cy="1068.3" r="2"/>
	<circle class="st0" cx="38" cy="1068.3" r="2"/>
	<circle class="st0" cx="5" cy="1079.3" r="2"/>
	<circle class="st0" cx="16" cy="1079.3" r="2"/>
	<circle class="st0" cx="27" cy="1079.3" r="2"/>
	<circle class="st0" cx="38" cy="1079.3" r="2"/>
</g>
</svg>
